<svg width="24" height="24" viewBox="0 0 24 24" fill="none" xmlns="http://www.w3.org/2000/svg">
<path fill-rule="evenodd" clip-rule="evenodd" d="M12 1.63636C6.27634 1.63636 1.63636 6.27633 1.63636 12C1.63636 17.7236 6.27634 22.3636 12 22.3636C17.7237 22.3636 22.3638 17.7236 22.3638 12C22.3638 6.27633 17.7237 1.63636 12 1.63636ZM0 12C0 5.37258 5.37259 0 12 0C18.6274 0 24.0001 5.37258 24.0001 12C24.0001 18.6274 18.6274 24 12 24C5.37259 24 0 18.6274 0 12Z" fill="#454545"/>
<path fill-rule="evenodd" clip-rule="evenodd" d="M22.909 12.7272H1.09082V11.2727H22.909V12.7272Z" fill="#454545"/>
<path fill-rule="evenodd" clip-rule="evenodd" d="M11.2725 22.9091V1.09086H12.7271V22.9091H11.2725ZM17.2272 11.9999C17.2272 8.04949 15.8066 4.14137 13.0215 1.55733L13.8871 0.624329C16.9811 3.49482 18.5 7.76856 18.5 11.9999C18.5 16.2313 16.9811 20.5051 13.8871 23.3756L13.0215 22.4425C15.8066 19.8585 17.2272 15.9504 17.2272 11.9999ZM5.63574 12C5.63574 7.77471 7.10515 3.50319 10.1048 0.631201L10.985 1.55051C8.28758 4.1331 6.90847 8.0434 6.90847 12C6.90849 15.9565 8.28762 19.8669 10.985 22.4494L10.1048 23.3687C7.10518 20.4967 5.63576 16.2252 5.63574 12Z" fill="#454545"/>
<path fill-rule="evenodd" clip-rule="evenodd" d="M12.0002 5.55998C15.9444 5.55998 19.9553 6.28933 22.6741 7.80811C22.981 7.97951 23.0908 8.36719 22.9193 8.67402C22.7481 8.98084 22.3602 9.09064 22.0535 8.91924C19.5991 7.54824 15.8329 6.83271 12.0002 6.83271C8.16734 6.83271 4.40115 7.54824 1.94682 8.91924C1.63998 9.09064 1.25231 8.98084 1.08091 8.67402C0.909527 8.36719 1.01931 7.97951 1.32615 7.80811C4.04504 6.28933 8.05591 5.55998 12.0002 5.55998ZM12.0002 18.0909C15.9444 18.0909 19.9553 17.3614 22.6741 15.8427C22.981 15.6713 23.0908 15.2836 22.9193 14.9768C22.7481 14.67 22.3602 14.5602 22.0535 14.7316C19.5991 16.1026 15.8329 16.8182 12.0002 16.8182C8.16734 16.8182 4.40115 16.1026 1.94682 14.7316C1.63998 14.5602 1.25231 14.67 1.08091 14.9768C0.909527 15.2836 1.01931 15.6713 1.32615 15.8427C4.04504 17.3614 8.05591 18.0909 12.0002 18.0909Z" fill="#454545"/>
</svg>
