<svg width="175" height="170" viewBox="0 0 175 170" fill="none" xmlns="http://www.w3.org/2000/svg">
<path d="M46.2173 100.438H51.5347V126.255H46.3389L40.6961 110.789V126.255H35.4189V100.438H40.6558L46.2173 115.863V100.438Z" fill="black"/>
<path d="M60.4658 106.161H65.0526C68.4887 106.161 70.2081 107.662 70.2081 110.667V117.77H60.7502V121.221C60.7502 121.573 60.8316 121.823 60.9935 121.972C61.1562 122.121 61.4397 122.195 61.8457 122.195H63.6727C64.0516 122.195 64.322 122.114 64.4847 121.952C64.6475 121.79 64.728 121.52 64.728 121.14V119.8H70.1678V121.749C70.1678 124.753 68.4493 126.255 65.0123 126.255H60.4658C57.056 126.255 55.3506 124.754 55.3506 121.749V110.667C55.3506 107.663 57.0551 106.161 60.4658 106.161ZM60.7502 114.442H64.7691V111.194C64.7691 110.843 64.6877 110.592 64.5258 110.443C64.3631 110.295 64.0927 110.22 63.7138 110.22H61.8466C61.4406 110.22 61.1562 110.295 60.9943 110.443C60.8316 110.592 60.7511 110.843 60.7511 111.194V114.442H60.7502Z" fill="black"/>
<path d="M79.3006 126.254H73.6577V99.0979H79.3006V126.254Z" fill="black"/>
<path d="M92.087 106.161H97.7299V126.254H92.1684V123.981C91.7886 125.498 90.6931 126.254 88.8801 126.254H87.9062C84.7396 126.254 83.1567 124.753 83.1567 121.748V106.16H88.8399V120.976C88.8399 121.653 89.2047 121.991 89.9362 121.991H90.8699C91.6819 121.991 92.0879 121.559 92.0879 120.692V106.16L92.087 106.161Z" fill="black"/>
<path d="M110.638 110.423H108V120.936C108 121.585 108.364 121.911 109.096 121.911H110.639V126.254H107.472C104.062 126.254 102.358 124.753 102.358 121.748V110.423H100.247V106.161H102.358V102.426H108V106.161H110.639V110.423H110.638Z" fill="black"/>
<path d="M125.251 126.254L124.358 121.586H118.472L117.578 126.254H111.855L117.7 100.437H125.088L131.095 126.254H125.25H125.251ZM119.284 117.364H123.506L121.395 106.445L119.285 117.364H119.284Z" fill="black"/>
<path d="M133.815 100.438H139.58V126.255H133.815V100.438Z" fill="black"/>
<path d="M118.477 50.335V73.0027C118.477 78.9842 113.911 83.9297 108.088 84.5335H98.5695V94.4761L92.0472 84.5956L87.1315 76.389H106.877C108.753 76.389 110.271 74.8709 110.271 73.0027V50.335C110.271 48.4704 108.753 46.9522 106.877 46.9522H67.3976C65.5216 46.9522 64 48.4704 64 50.335V73.0027C64 74.8709 65.5216 76.389 67.3976 76.389H74.2191V66.4385L85.4069 84.5956H67.3976C60.9961 84.5956 55.7969 79.3964 55.7969 73.0027V50.335C55.7969 43.9449 60.9961 38.7456 67.3976 38.7456H106.877C113.278 38.7456 118.477 43.9449 118.477 50.335Z" fill="black"/>
<path d="M79.8436 52.5802H85.5249C86.6362 52.5802 87.5383 53.4823 87.5383 54.5936V60.275C87.5383 61.3862 86.6362 62.2883 85.5249 62.2883H79.8444C78.7332 62.2883 77.8311 61.3862 77.8311 60.275V54.5945C77.8311 53.4832 78.7332 52.5811 79.8444 52.5811L79.8436 52.5802Z" fill="black"/>
<path d="M95.7204 52.5802H101.402C102.513 52.5802 103.415 53.4823 103.415 54.5936V60.275C103.415 61.3862 102.513 62.2883 101.402 62.2883H95.7204C94.6092 62.2883 93.707 61.3862 93.707 60.275V54.5945C93.707 53.4832 94.6092 52.5811 95.7204 52.5811V52.5802Z" fill="black"/>
<path d="M86.4555 65.6606C86.4555 65.6606 87.8257 72.2949 94.1756 72.4786C100.525 72.6624 101.896 65.6606 101.896 65.6606C101.896 65.6606 99.0528 68.8544 94.5343 68.9165C92.1281 68.9498 89.5626 68.9025 86.4546 65.6606H86.4555Z" fill="black"/>
<path d="M85.6792 66.2602C85.5155 65.8699 85.61 65.4639 85.9242 65.1822C86.3127 64.8339 86.9304 64.9984 87.1019 65.4254C86.4947 65.2163 85.9627 65.7754 85.6792 66.2602Z" fill="black"/>
<path d="M102.686 66.2223C102.518 66.0316 102.374 65.882 102.2 65.7105C102.037 65.5503 101.829 65.4077 101.619 65.308C101.489 65.2458 101.321 65.1645 101.18 65.1338C101.765 64.7585 102.32 65.0656 102.593 65.6466C102.66 65.791 102.686 65.9668 102.686 66.2223H102.686Z" fill="black"/>
</svg>
